<svg width="31" height="30" viewBox="0 0 31 30" fill="none" xmlns="http://www.w3.org/2000/svg">
<path d="M23.4036 3.91562C20.8155 1.39018 17.3695 0 13.7073 0C10.0451 0 6.5993 1.3901 4.0109 3.91562C-1.33697 9.13395 -1.33697 17.6199 4.0109 22.8312C6.6811 25.4367 10.194 26.7468 13.7073 26.7468C16.7504 26.7468 19.7937 25.7643 22.292 23.8065L28.6392 30L30.75 27.9404L24.4027 21.7468C28.7214 16.5069 28.3934 8.7848 23.4036 3.91562ZM6.12195 20.7787C1.93767 16.6958 1.93767 10.0581 6.12195 5.97515C8.15069 4.00281 10.8432 2.91111 13.7073 2.91111C16.5714 2.91111 19.264 4.00281 21.2926 5.97515C25.4769 10.0581 25.4769 16.6958 21.2926 20.7787C17.1083 24.8616 10.3058 24.8616 6.12156 20.7787H6.12195Z" fill="black"/>
</svg>
