<svg width="63" height="48" viewBox="0 0 63 48" fill="none" xmlns="http://www.w3.org/2000/svg">
<path fill-rule="evenodd" clip-rule="evenodd" d="M61.6692 36.7372C60.4534 38.27 57.4758 39.363 57.4758 39.363L35.3235 47.3159V41.4511L51.626 35.6454C53.476 34.9826 53.7601 34.0463 52.2564 33.5545C50.7555 33.0613 48.0375 33.2027 46.1863 33.8682L35.3235 37.692V31.6052L35.9498 31.3935C35.9498 31.3935 39.0885 30.2832 43.5025 29.7944C47.9162 29.3085 53.3204 29.8607 57.5632 31.4682C62.3445 32.9784 62.8828 35.2044 61.6689 36.7372H61.6692ZM37.4324 26.7502V11.7512C37.4324 9.98979 37.1072 8.36843 35.4536 7.90923C34.1871 7.50373 33.4015 8.67876 33.4015 10.4389V48L23.2668 44.7849V0C27.5759 0.799372 33.854 2.6896 37.2288 3.82662C45.8117 6.77189 48.7217 10.4377 48.7217 18.6971C48.7217 26.7474 43.7499 29.7985 37.4324 26.7502ZM4.67059 40.838C-0.238045 39.4563 -1.05479 36.5776 1.18238 34.9192C3.25017 33.388 6.76666 32.2353 6.76666 32.2353L21.298 27.0709V32.9586L10.841 36.6989C8.99377 37.3613 8.70969 38.2992 10.2109 38.7907C11.713 39.2823 14.4322 39.1425 16.2822 38.4785L21.298 36.6593V41.9267C20.98 41.9832 20.6255 42.0397 20.2975 42.0947C15.2801 42.9142 9.93653 42.5721 4.67059 40.8377V40.838Z" fill="#0070D1"/>
</svg>
